HIERARCHY
ROOT Hips
{
	OFFSET 0.00000 0.00000 0.00000
	CHANNELS 6 Xposition Yposition Zposition Zrotation Yrotation Xrotation 
	JOINT LHipJoint
	{
		OFFSET 0 0 0
		CHANNELS 3 Zrotation Yrotation Xrotation
		JOINT LeftHip
		{
			OFFSET 1.52977 -1.71332 0.88991
			CHANNELS 3 Zrotation Yrotation Xrotation
			JOINT LeftKnee
			{
				OFFSET 2.23949 -6.15296 0.00000
				CHANNELS 3 Zrotation Yrotation Xrotation
				JOINT LeftAnkle
				{
					OFFSET 2.68396 -7.37412 0.00000
					CHANNELS 3 Zrotation Yrotation Xrotation
					JOINT LeftToe
					{
						OFFSET 0.20538 -0.56428 2.52710
						CHANNELS 3 Zrotation Yrotation Xrotation
						End Site
						{
							OFFSET 0.00000 -0.00000 1.29919
						}
					}
				}
			}
		}
	}
	JOINT RHipJoint
	{
		OFFSET 0 0 0
		CHANNELS 3 Zrotation Yrotation Xrotation
		JOINT RightHip
		{
			OFFSET -1.45689 -1.71333 0.88991
			CHANNELS 3 Zrotation Yrotation Xrotation
			JOINT RightKnee
			{
				OFFSET -2.36700 -6.50329 0.00000
				CHANNELS 3 Zrotation Yrotation Xrotation
				JOINT RightAnkle
				{
					OFFSET -2.69814 -7.41308 0.00000
					CHANNELS 3 Zrotation Yrotation Xrotation
					JOINT RightToe
					{
						OFFSET -0.18734 -0.51471 2.37479
						CHANNELS 3 Zrotation Yrotation Xrotation
						End Site
						{
							OFFSET -0.00000 -0.00000 1.22113
						}
					}
				}
			}
		}
	}
	JOINT lowerback
	{
		OFFSET 0 0 0
		CHANNELS 3 Zrotation Yrotation Xrotation
		JOINT Chest
		{
			OFFSET 0.04294 2.14638 -0.31163
			CHANNELS 3 Zrotation Yrotation Xrotation
			JOINT Chest2
			{
				OFFSET -0.00400 2.17216 0.01486
				CHANNELS 3 Zrotation Yrotation Xrotation
				JOINT lowerneck
				{
					OFFSET 0 0 0
					CHANNELS 3 Zrotation Yrotation Xrotation
					JOINT Neck
					{
						OFFSET 0.03869 1.76598 0.14916
						CHANNELS 3 Zrotation Yrotation Xrotation
						JOINT Head
						{
							OFFSET -0.00760 1.75513 -0.18948
							CHANNELS 3 Zrotation Yrotation Xrotation
							End Site
							{
								OFFSET -0.00601 1.82444 -0.08310
							}
						}
					}
				}
				JOINT LeftCollar
				{
					OFFSET 0 0 0
					CHANNELS 3 Zrotation Yrotation Xrotation
					JOINT LeftShoulder
					{
						OFFSET 3.73696 0.92058 0.01733
CHANNELS 3 Zrotation Xrotation Yrotation
						JOINT LeftElbow
						{
OFFSET 0 -5.227710 0.000000
CHANNELS 3 Zrotation Xrotation Yrotation
							JOINT LeftWrist
							{
OFFSET 0 -3.452510 0.000000
CHANNELS 3 Zrotation Xrotation Yrotation
								JOINT lhand
								{
									OFFSET 0 0 0
CHANNELS 3 Zrotation Xrotation Yrotation
									JOINT LFingers
									{
OFFSET 0 -0.552120 0.000000
CHANNELS 3 Zrotation Xrotation Yrotation
										End Site
										{
OFFSET 0 -0.445130 0.000000
										}
									}
								}
								JOINT LThumb
								{
OFFSET 0 0.000000 0.000000
CHANNELS 3 Zrotation Xrotation Yrotation
									End Site
									{
OFFSET 0 -0.451930 0.451930
									}
								}
							}
						}
					}
				}
				JOINT RightCollar
				{
					OFFSET 0 0 0
					CHANNELS 3 Zrotation Yrotation Xrotation
					JOINT RightShoulder
					{
						OFFSET -3.63819 0.83094 -0.13694
CHANNELS 3 Zrotation Xrotation Yrotation
						JOINT RightElbow
						{
OFFSET 0 -5.239800 -0.000000
CHANNELS 3 Zrotation Xrotation Yrotation
							JOINT RightWrist
							{
OFFSET 0 -3.480420 -0.000000
CHANNELS 3 Zrotation Xrotation Yrotation
								JOINT rhand
								{
									OFFSET 0 0 0
CHANNELS 3 Zrotation Xrotation Yrotation
									JOINT RFingers
									{
OFFSET 0 -0.618710 0.000000
CHANNELS 3 Zrotation Xrotation Yrotation
										End Site
										{
OFFSET 0 -0.498820 0.000000
										}
									}
								}
								JOINT RThumb
								{
OFFSET 0 0.000000 0.000000
CHANNELS 3 Zrotation Xrotation Yrotation
									End Site
									{
OFFSET 0 -0.506440 0.506440
									}
								}
							}
						}
					}
				}
			}
		}
	}
}
MOTION
Frames: 4
Frame Time: 0.008333333333333333
-37.236600 17.022800 -6.781900 -105.989000 -86.055100 104.726000 0.000000 0.000000 0.000000 -13.546200 5.907800 1.888400 0.768600 5.598200 15.622800 0.914300 -2.456400 -17.409100 0.017000 -0.841300 -2.312400 0.000000 0.000000 0.000000 26.007100 6.832600 -2.570500 -2.730800 -10.246000 29.777000 -2.024400 -4.108600 -28.598100 -0.152000 -2.512100 6.923100 4.618900 -0.616500 -2.196000 0.116800 -1.010600 2.002000 -2.518500 -0.403300 3.220900 0.512300 -0.528600 -6.986300 2.707900 -0.993000 6.401300 0.745100 -0.378900 3.308700 -0.000000 -0.000000 0.000000 4.067400 3.691800 -25.594300 14.706200 -23.735300 3.106700 17.075500 -12.613000 -11.825600 0.000000 0.000000 0.000000 -7.125000 0.000000 0.000000 -9.079500 42.157100 -0.642600 -0.000000 -0.000000 0.000000 -0.179300 2.159500 19.797700 -13.931200 -22.636300 -2.801600 -18.244900 5.184500 4.050300 0.000000 0.000000 0.000000 7.125000 0.000000 -0.000000 6.899800 34.181500 1.842800
-37.239655 17.022066 -6.780422 -105.847150 -85.995142 104.605813 0.000000 0.000000 0.000000 -13.490842 5.883467 1.879058 0.770312 5.604346 15.640660 0.917389 -2.444357 -17.441237 0.017078 -0.844852 -2.321990 0.000000 0.000000 0.000000 26.077445 6.889063 -2.572003 -2.726322 -10.238255 29.751855 -1.999607 -4.371873 -28.563284 -0.152198 -2.513954 6.928299 4.673549 -0.620978 -2.175809 0.131045 -1.017545 1.987089 -2.534380 -0.406589 3.192943 0.510923 -0.522532 -6.953344 2.724574 -0.985732 6.397890 0.751199 -0.375055 3.301273 0.000000 0.000000 0.000000 4.006337 3.767325 -25.489006 14.725224 -23.761858 3.114334 17.105474 -12.583683 -11.795840 0.000000 0.000000 0.000000 -7.125000 0.000000 0.000000 -9.046828 42.129652 -0.646520 0.000000 0.000000 0.000000 -0.144313 2.157423 19.721653 -13.957118 -22.673460 -2.811598 -18.267563 5.151426 3.972786 0.000000 0.000000 0.000000 7.125000 0.000000 0.000000 6.873190 34.101330 1.848969
-37.243166 17.025955 -6.780111 -105.474609 -86.007432 104.275935 0.000000 0.000000 0.000000 -13.499410 5.881877 1.887051 0.761513 5.572919 15.550077 0.911923 -2.428259 -17.390699 0.017744 -0.860611 -2.365298 0.000000 0.000000 0.000000 26.084043 6.932359 -2.563365 -2.731077 -10.246442 29.778505 -2.033940 -4.176091 -28.692683 -0.165454 -2.620618 7.224379 4.645581 -0.620278 -2.191798 0.130478 -1.016189 1.984645 -2.519435 -0.406411 3.199933 0.498214 -0.538385 -6.874507 2.763605 -1.005562 6.318228 0.764831 -0.385164 3.259292 0.000000 0.000000 0.000000 3.957320 3.765577 -25.405170 14.718189 -23.752056 3.111567 17.053392 -12.519312 -11.739068 0.000000 0.000000 0.000000 -7.125000 0.000000 0.000000 -9.081122 42.066169 -0.663286 0.000000 0.000000 0.000000 -0.115949 2.144948 19.730078 -14.001271 -22.736579 -2.828597 -18.400703 4.903916 3.878836 0.000000 0.000000 0.000000 7.125000 0.000000 0.000000 6.754873 34.008225 1.832169
-37.246333 17.029466 -6.779334 -105.137085 -86.014532 103.985407 0.000000 0.000000 0.000000 -13.506799 5.876902 1.903198 0.751069 5.535441 15.442222 0.905868 -2.410037 -17.334379 0.018133 -0.870330 -2.392192 0.000000 0.000000 0.000000 26.087332 6.972724 -2.576396 -2.735333 -10.253733 29.802397 -2.053830 -4.072180 -28.772286 -0.175265 -2.696719 7.435526 4.629936 -0.619367 -2.212094 0.131000 -1.015533 1.984333 -2.510368 -0.406100 3.211396 0.514078 -0.571154 -6.831355 2.768150 -1.049550 6.273921 0.761044 -0.407325 3.236145 0.000000 0.000000 0.000000 3.904047 3.764734 -25.315856 14.721031 -23.756097 3.112666 17.021415 -12.447523 -11.714577 0.000000 0.000000 0.000000 -7.125000 0.000000 0.000000 -9.104349 42.037878 -0.671470 0.000000 0.000000 0.000000 -0.083942 2.113143 19.731571 -14.039690 -22.791420 -2.843463 -18.512452 4.676775 3.797912 0.000000 0.000000 0.000000 7.125000 0.000000 0.000000 6.655480 33.927812 1.817935
